# xmcd
#
# Track frame offsets:
# 150
# 7350
# 30525
# 55321
# 87403
# 94634
# 117509
#
# Disc length: 1992 seconds
#
# Revision: 1
# Processed by: cddbd v1.5.1PL0 Copyright (c) Steve Scherf et al.
# Submitted via: plextools 2.19a
#
DISCID=5807c607
DTITLE=qwert - VOICE IN THE AIR 〜夜空に散りばめられた歌声〜
DYEAR=2003
DGENRE=Game
TTITLE0=qwert/卯月ともよ - Voice in the AIR 〜夜空に散りばめられた歌声〜
TTITLE1=qwert/卯月ともよ - 鳥の詩
TTITLE2=qwert - 夏影 -summer lights-
TTITLE3=qwert/卯月ともよ - Farewell Song
TTITLE4=qwert - - interlude - 〜歌声は海へと舞い降りて〜
TTITLE5=qwert - 鳥の詩 -off vocal-
TTITLE6=qwert - Farewell Song -off vocal-
EXTD=YEAR: 2003
EXTT0=
EXTT1=
EXTT2=
EXTT3=
EXTT4=
EXTT5=
EXTT6=
PLAYORDER=
